<svg width="289" height="73" viewBox="0 0 289 73" fill="none" xmlns="http://www.w3.org/2000/svg">
<path d="M75.8035 34.6251C75.7329 34.795 75.6622 34.9365 75.6057 35.0638C75.5492 35.1912 75.4927 35.2902 75.422 35.3751C75.3655 35.4459 75.2807 35.5166 75.196 35.5591C75.0971 35.6015 74.9699 35.6298 74.8145 35.6298H72.2571C71.5647 35.6298 71.2256 35.3044 71.2256 34.6393V15.2962C71.2256 15.1547 71.2539 15.0132 71.2963 14.9C71.3528 14.7727 71.4235 14.6736 71.5224 14.5887C71.6213 14.5038 71.7202 14.4331 71.8332 14.3906C71.9604 14.334 72.0734 14.3199 72.1864 14.3199H75.1253C75.4503 14.3199 75.7046 14.4189 75.9024 14.6029C76.1002 14.7868 76.185 15.0274 76.185 15.2962V20.6732C76.4252 20.4185 76.6795 20.178 76.9621 19.9657C77.2447 19.7535 77.5414 19.5695 77.8523 19.428C78.1772 19.2724 78.5305 19.145 78.9261 19.0601C79.3217 18.9752 79.7456 18.9328 80.2119 18.9328C81.3846 18.9328 82.4584 19.1592 83.4475 19.5978C84.4365 20.0223 85.2843 20.6308 85.9907 21.3949C86.7113 22.159 87.2624 23.0504 87.658 24.0834C88.0677 25.1163 88.2655 26.22 88.2655 27.4228C88.2655 28.6255 88.0677 29.7292 87.658 30.7622C87.2624 31.7951 86.7113 32.7007 85.9907 33.4648C85.2843 34.2289 84.4365 34.8233 83.4475 35.2619C82.4584 35.7006 81.3846 35.927 80.2119 35.927C79.7739 35.927 79.35 35.8704 78.9402 35.7572C78.5446 35.644 78.1631 35.5024 77.8099 35.3185C77.4567 35.1345 77.1317 34.9365 76.8208 34.7101C76.5241 34.4837 76.2698 34.2431 76.0296 34.0167L75.8035 34.6393V34.6251ZM83.5888 27.4228C83.5888 26.8709 83.504 26.3474 83.3203 25.838C83.1508 25.3427 82.8964 24.9041 82.5714 24.522C82.2465 24.14 81.8509 23.8428 81.3987 23.6306C80.9466 23.4042 80.4238 23.291 79.8586 23.291C79.2935 23.291 78.7565 23.4042 78.262 23.6306C77.7675 23.8428 77.3436 24.14 76.9763 24.522C76.6089 24.9041 76.3263 25.3427 76.1144 25.838C75.9024 26.3332 75.8035 26.8709 75.8035 27.4228V27.6067C75.8318 28.1444 75.9448 28.6538 76.1709 29.1349C76.397 29.616 76.6937 30.0264 77.0469 30.3801C77.4143 30.7197 77.824 31.0027 78.3185 31.2008C78.7989 31.3989 79.3217 31.498 79.8728 31.498C80.4238 31.498 80.9607 31.3989 81.4128 31.1867C81.865 30.9744 82.2606 30.6773 82.5856 30.3235C82.9106 29.9698 83.1649 29.5311 83.3344 29.0359C83.5181 28.5406 83.6029 28.0029 83.6029 27.4369L83.5888 27.4228ZM91.5577 20.1497C91.5577 19.9799 91.5859 19.8384 91.6424 19.7252C91.699 19.5978 91.7837 19.4988 91.8685 19.428C91.9674 19.3573 92.0804 19.3007 92.2076 19.2582C92.3348 19.2158 92.4619 19.1875 92.5891 19.1875H94.5389C94.7509 19.1875 94.9204 19.2582 95.0617 19.3856C95.1889 19.5129 95.3019 19.6827 95.3867 19.8808C95.4856 20.0789 95.5562 20.3053 95.6269 20.5459C95.6975 20.7864 95.7823 21.027 95.8671 21.2392C96.1214 20.9562 96.3757 20.6732 96.6301 20.4044C96.8844 20.1214 97.167 19.8808 97.4637 19.6686C97.7604 19.4563 98.0713 19.2865 98.4245 19.145C98.7777 19.0035 99.1733 18.9328 99.6255 18.9328C100.078 18.9328 100.501 18.9611 100.869 19.0318C101.236 19.1026 101.589 19.2016 101.914 19.3431C102.239 19.4705 102.564 19.6403 102.889 19.8525C103.214 20.0648 103.568 20.3053 103.949 20.5742C104.316 20.7864 104.5 21.0411 104.5 21.3383C104.5 21.5222 104.429 21.7486 104.274 22.0033L103.101 24.0126C102.875 24.3522 102.578 24.522 102.239 24.522C102.07 24.522 101.872 24.4796 101.66 24.3805C101.293 24.0126 100.911 23.7438 100.53 23.574C100.148 23.39 99.7103 23.3051 99.2299 23.3051C98.8908 23.3051 98.594 23.3476 98.3397 23.4466C98.0854 23.5457 97.8593 23.673 97.6615 23.8428C97.4496 24.0126 97.2659 24.2249 97.0822 24.4654C96.8985 24.706 96.7148 24.9748 96.5453 25.272V34.6393C96.5453 34.9648 96.4605 35.2195 96.3051 35.3893C96.1497 35.5591 95.8812 35.6298 95.5139 35.6298H92.6032C91.925 35.6298 91.6001 35.3044 91.6001 34.6393V20.1497H91.5577ZM120.509 33.663C119.746 34.3563 118.898 34.9082 117.951 35.3044C117.004 35.6864 116.001 35.8845 114.942 35.8845C113.755 35.8845 112.653 35.6723 111.593 35.2336C110.547 34.8091 109.615 34.2006 108.824 33.4507C108.032 32.6866 107.397 31.781 106.93 30.748C106.464 29.7151 106.238 28.5831 106.238 27.3662C106.238 26.6021 106.323 25.8804 106.506 25.1729C106.69 24.4513 106.959 23.7862 107.298 23.1636C107.637 22.541 108.061 21.975 108.541 21.4515C109.036 20.9279 109.572 20.4751 110.18 20.1072C110.788 19.7393 111.438 19.4422 112.144 19.2441C112.85 19.0318 113.599 18.9328 114.376 18.9328C115.097 18.9328 115.789 19.0318 116.453 19.2158C117.132 19.3997 117.753 19.6686 118.347 20.0223C118.94 20.3619 119.477 20.7864 119.972 21.2675C120.466 21.7486 120.89 22.2863 121.243 22.8523C121.596 23.4183 121.865 24.0409 122.063 24.6918C122.261 25.3427 122.359 26.0078 122.359 26.7011C122.359 27.1539 122.359 27.5218 122.331 27.8048C122.331 28.0878 122.261 28.3142 122.133 28.484C122.006 28.6538 121.808 28.767 121.526 28.8378C121.243 28.8944 120.848 28.9227 120.297 28.9227H111C111.084 29.4745 111.254 29.9415 111.522 30.3094C111.791 30.6773 112.102 30.9744 112.441 31.2008C112.78 31.4131 113.147 31.5687 113.543 31.6678C113.924 31.7668 114.292 31.8093 114.645 31.8093C114.956 31.8093 115.281 31.781 115.606 31.7244C115.931 31.6536 116.241 31.5687 116.552 31.4697C116.863 31.3565 117.146 31.2291 117.386 31.0876C117.64 30.9461 117.852 30.7905 118.008 30.6348C118.149 30.5216 118.262 30.4367 118.361 30.3943C118.46 30.3377 118.573 30.3094 118.686 30.3094C118.799 30.3094 118.912 30.3518 119.025 30.4226C119.152 30.4933 119.279 30.6065 119.421 30.7622L120.791 32.3187C120.89 32.4319 120.947 32.5309 120.975 32.63C121.003 32.7149 121.017 32.7998 121.017 32.8988C121.017 33.0686 120.975 33.2243 120.876 33.3516C120.777 33.479 120.664 33.578 120.537 33.6771L120.509 33.663ZM114.292 22.8806C113.953 22.8806 113.628 22.9514 113.303 23.0929C112.992 23.2202 112.695 23.4042 112.427 23.6164C112.158 23.8287 111.904 24.0975 111.678 24.3805C111.466 24.6635 111.282 24.9607 111.155 25.2437H117.753C117.57 24.9041 117.372 24.5928 117.16 24.3098C116.948 24.0268 116.708 23.7721 116.439 23.5598C116.171 23.3476 115.86 23.1778 115.507 23.0504C115.168 22.9231 114.758 22.8665 114.292 22.8665V22.8806ZM126.104 19.4139C126.217 19.3148 126.33 19.2582 126.457 19.2299C126.584 19.2016 126.711 19.1875 126.824 19.1875H128.774C128.93 19.1875 129.057 19.2158 129.17 19.2724C129.283 19.329 129.382 19.3997 129.452 19.4988C129.523 19.5978 129.594 19.6969 129.636 19.8242C129.693 19.9516 129.735 20.0648 129.777 20.2063L130.046 21.3383C130.173 21.0694 130.385 20.8006 130.667 20.5034C130.964 20.2204 131.317 19.9657 131.741 19.7252C132.165 19.4988 132.674 19.3007 133.225 19.1592C133.79 19.0035 134.412 18.9328 135.104 18.9328C136.093 18.9328 136.955 19.1167 137.732 19.4988C138.509 19.8808 139.159 20.3902 139.696 21.0553C140.233 21.7062 140.643 22.4844 140.925 23.3617C141.208 24.239 141.349 25.1588 141.349 26.1634V34.6393C141.349 34.9648 141.279 35.2195 141.123 35.3893C140.982 35.5591 140.756 35.6298 140.445 35.6298H137.464C137.096 35.6298 136.842 35.5732 136.701 35.4458C136.559 35.3185 136.489 35.0638 136.489 34.7101V26.2908C136.489 25.9229 136.404 25.5691 136.234 25.2437C136.065 24.9041 135.853 24.6069 135.57 24.3664C135.288 24.1117 134.977 23.8994 134.624 23.7579C134.285 23.6164 133.931 23.5315 133.564 23.5315C133.253 23.5315 132.928 23.6023 132.603 23.7438C132.278 23.8853 131.981 24.0692 131.713 24.3239C131.445 24.5645 131.219 24.8475 131.035 25.1871C130.851 25.5125 130.752 25.8663 130.724 26.2625V34.6676C130.724 34.8091 130.696 34.9648 130.639 35.1063C130.583 35.2478 130.512 35.3609 130.399 35.4458C130.286 35.5166 130.173 35.5591 130.074 35.5874C129.975 35.6157 129.862 35.6298 129.735 35.6298H126.81C126.443 35.6298 126.174 35.5449 126.005 35.361C125.835 35.177 125.765 34.9365 125.765 34.6393V20.1497C125.765 19.9799 125.793 19.8384 125.864 19.6969C125.934 19.5554 126.047 19.4563 126.174 19.3714L126.104 19.4139V19.4139ZM156.849 34.0167C156.623 34.2431 156.354 34.4837 156.044 34.7101C155.747 34.9365 155.422 35.1345 155.069 35.3185C154.73 35.5024 154.348 35.644 153.938 35.7572C153.543 35.8704 153.119 35.927 152.667 35.927C151.494 35.927 150.42 35.7006 149.417 35.2619C148.428 34.8233 147.58 34.2289 146.874 33.4648C146.167 32.7007 145.616 31.7951 145.206 30.7622C144.811 29.7292 144.613 28.6114 144.613 27.4228C144.613 26.2342 144.811 25.1163 145.206 24.0834C145.616 23.0504 146.167 22.1448 146.874 21.3949C147.594 20.6308 148.442 20.0223 149.417 19.5978C150.406 19.1592 151.494 18.9328 152.667 18.9328C153.147 18.9328 153.571 18.9752 153.953 19.0601C154.348 19.1309 154.701 19.2582 155.026 19.4139C155.351 19.5695 155.648 19.7535 155.916 19.9657C156.199 20.178 156.453 20.4185 156.694 20.6732V15.2821C156.694 14.9991 156.778 14.7727 156.934 14.5887C157.103 14.4048 157.358 14.3057 157.697 14.3057H160.607C160.72 14.3057 160.833 14.334 160.961 14.3765C161.088 14.4189 161.201 14.4897 161.314 14.5746C161.413 14.6595 161.498 14.7585 161.554 14.8859C161.625 15.0132 161.653 15.1406 161.653 15.2821V34.6251C161.653 35.2902 161.3 35.6157 160.607 35.6157H158.078C157.909 35.6157 157.767 35.5874 157.683 35.5449C157.598 35.5025 157.513 35.4459 157.442 35.361C157.386 35.2761 157.329 35.177 157.273 35.0497C157.216 34.9223 157.16 34.7666 157.075 34.611L156.835 33.9884L156.849 34.0167ZM149.29 27.4369C149.29 28.0029 149.375 28.5406 149.544 29.0359C149.728 29.5311 149.982 29.9556 150.307 30.3235C150.632 30.6914 151.028 30.9744 151.48 31.1867C151.946 31.3989 152.455 31.498 153.02 31.498C153.585 31.498 154.094 31.3989 154.574 31.2008C155.069 31.0027 155.493 30.7339 155.86 30.3801C156.227 30.0264 156.51 29.616 156.722 29.1349C156.948 28.6538 157.075 28.1444 157.103 27.6067V27.4228C157.103 26.8709 157.004 26.3474 156.792 25.838C156.581 25.3427 156.298 24.9041 155.931 24.522C155.563 24.14 155.139 23.8428 154.645 23.6306C154.15 23.4042 153.613 23.291 153.048 23.291C152.483 23.291 151.974 23.4042 151.508 23.6306C151.056 23.8428 150.66 24.14 150.335 24.522C150.01 24.9041 149.756 25.3427 149.572 25.838C149.403 26.3332 149.318 26.8709 149.318 27.4228L149.29 27.4369ZM182.72 34.6818C182.72 34.8233 182.691 34.9648 182.649 35.1063C182.593 35.2336 182.508 35.3327 182.395 35.4176C182.296 35.5166 182.183 35.5732 182.056 35.6015C181.928 35.6298 181.815 35.644 181.717 35.644H179.173C178.99 35.644 178.848 35.6157 178.735 35.5732C178.622 35.5166 178.537 35.4459 178.467 35.361C178.396 35.2761 178.34 35.177 178.283 35.0497C178.241 34.9223 178.198 34.7808 178.142 34.6393L177.972 34.0591C177.746 34.2855 177.478 34.5261 177.167 34.7383C176.87 34.9648 176.545 35.1628 176.178 35.3468C175.825 35.5166 175.443 35.6581 175.033 35.7572C174.624 35.8704 174.2 35.927 173.762 35.927C172.985 35.927 172.222 35.8279 171.501 35.6298C170.78 35.4317 170.116 35.1487 169.481 34.795C168.859 34.4271 168.294 33.9884 167.785 33.479C167.276 32.9554 166.838 32.3894 166.471 31.7527C166.104 31.1159 165.835 30.4509 165.637 29.7151C165.44 28.9793 165.341 28.2152 165.341 27.4228C165.341 26.22 165.567 25.1163 166.005 24.0834C166.443 23.0504 167.036 22.1448 167.799 21.3949C168.562 20.6308 169.452 20.0223 170.47 19.5978C171.501 19.1592 172.589 18.9328 173.762 18.9328C174.299 18.9328 174.793 18.9894 175.245 19.1167C175.712 19.2441 176.135 19.3997 176.517 19.612C176.898 19.8242 177.252 20.0648 177.563 20.3619C177.873 20.6449 178.142 20.9562 178.382 21.2958L178.763 20.1214L178.975 19.5978C179.032 19.4563 179.103 19.3573 179.159 19.3007C179.23 19.2299 179.315 19.1875 179.399 19.1733C179.498 19.145 179.625 19.1309 179.795 19.1309H181.717C181.815 19.1309 181.928 19.1309 182.056 19.1733C182.183 19.2016 182.296 19.2582 182.395 19.3573C182.522 19.4563 182.607 19.5554 182.649 19.6827C182.691 19.8101 182.72 19.9374 182.72 20.0931V34.6818V34.6818ZM169.989 27.4369C169.989 28.0029 170.074 28.5406 170.244 29.0359C170.427 29.5311 170.682 29.9556 171.007 30.3235C171.331 30.6914 171.727 30.9744 172.179 31.1867C172.646 31.3989 173.154 31.498 173.719 31.498C174.285 31.498 174.836 31.3989 175.316 31.1867C175.81 30.9744 176.248 30.6773 176.602 30.3235C176.969 29.9556 177.266 29.5311 177.464 29.0359C177.676 28.5406 177.774 28.0029 177.774 27.4369C177.774 26.8709 177.676 26.3615 177.464 25.8521C177.252 25.3569 176.969 24.9182 176.602 24.5362C176.234 24.1541 175.81 23.857 175.316 23.6447C174.821 23.4183 174.285 23.3051 173.719 23.3051C173.154 23.3051 172.646 23.4183 172.179 23.6447C171.727 23.857 171.331 24.1541 171.007 24.5362C170.682 24.9182 170.427 25.3569 170.244 25.8521C170.074 26.3474 169.989 26.8851 169.989 27.4369ZM186.874 19.428C186.987 19.329 187.1 19.2724 187.227 19.2441C187.354 19.2158 187.481 19.2016 187.594 19.2016H189.544C189.7 19.2016 189.827 19.2299 189.94 19.2865C190.053 19.3431 190.152 19.4139 190.222 19.5129C190.293 19.612 190.364 19.711 190.406 19.8384C190.463 19.9657 190.505 20.0789 190.547 20.2204L190.816 21.3524C190.943 21.0836 191.127 20.8147 191.367 20.5176C191.607 20.2204 191.918 19.9799 192.285 19.7393C192.653 19.5129 193.091 19.3148 193.599 19.1733C194.122 19.0177 194.715 18.9469 195.408 18.9469C195.945 18.9469 196.439 19.0035 196.877 19.1167C197.329 19.2158 197.725 19.3856 198.092 19.5978C198.46 19.8101 198.799 20.0648 199.096 20.3761C199.392 20.6732 199.675 21.027 199.943 21.4232C200.113 21.1543 200.353 20.8713 200.664 20.5883C200.989 20.2912 201.384 20.0223 201.822 19.7818C202.275 19.5412 202.769 19.3431 203.32 19.1875C203.871 19.0318 204.45 18.9611 205.072 18.9611C206.061 18.9611 206.909 19.145 207.644 19.5271C208.378 19.9091 208.986 20.4185 209.466 21.0836C209.961 21.7345 210.328 22.5127 210.568 23.39C210.809 24.2673 210.936 25.1871 210.936 26.1917V34.6676C210.936 34.9931 210.865 35.2478 210.71 35.4176C210.568 35.5874 210.342 35.6581 210.032 35.6581H207.05C206.683 35.6581 206.429 35.6015 206.287 35.4742C206.146 35.3468 206.075 35.0921 206.075 34.7383V26.1917C206.075 25.8238 206.019 25.4701 205.892 25.1588C205.779 24.8333 205.623 24.5645 205.411 24.3239C205.199 24.0834 204.945 23.8994 204.648 23.7721C204.352 23.6306 204.027 23.5598 203.659 23.5598C203.334 23.5598 203.023 23.6306 202.727 23.7579C202.43 23.8853 202.176 24.0692 201.95 24.2956C201.724 24.522 201.54 24.7909 201.413 25.1305C201.286 25.4559 201.215 25.8097 201.215 26.1917V34.6676C201.215 34.9931 201.144 35.2478 200.989 35.4176C200.848 35.5874 200.621 35.6581 200.311 35.6581H197.329C196.962 35.6581 196.708 35.6015 196.566 35.4742C196.425 35.3468 196.354 35.0921 196.354 34.7383V26.1917C196.354 25.8238 196.298 25.4701 196.185 25.1588C196.086 24.8333 195.931 24.5645 195.719 24.3239C195.521 24.0834 195.281 23.8994 194.984 23.7721C194.701 23.6306 194.376 23.5598 194.009 23.5598C193.698 23.5598 193.387 23.6306 193.091 23.7579C192.794 23.8853 192.525 24.0551 192.285 24.2815C192.059 24.5079 191.861 24.7767 191.692 25.1022C191.536 25.4276 191.452 25.7814 191.423 26.1634V34.7101C191.423 34.8516 191.395 35.0072 191.339 35.1487C191.282 35.2902 191.211 35.4034 191.098 35.4883C190.985 35.5591 190.872 35.6015 190.773 35.6298C190.674 35.6581 190.561 35.6723 190.434 35.6723H187.51C187.142 35.6723 186.874 35.5874 186.704 35.4034C186.535 35.2195 186.464 34.9789 186.464 34.6818V20.1497C186.464 19.9799 186.492 19.8384 186.563 19.6969C186.633 19.5554 186.747 19.4563 186.874 19.3714L186.803 19.4139L186.874 19.428ZM231.678 34.6818C231.678 34.8233 231.649 34.9648 231.607 35.1063C231.55 35.2336 231.466 35.3327 231.353 35.4176C231.254 35.5166 231.141 35.5732 231.014 35.6015C230.886 35.6298 230.773 35.644 230.674 35.644H228.131C227.947 35.644 227.806 35.6157 227.693 35.5732C227.58 35.5166 227.495 35.4459 227.425 35.361C227.354 35.2761 227.298 35.177 227.241 35.0497C227.199 34.9223 227.156 34.7808 227.1 34.6393L226.93 34.0591C226.704 34.2855 226.436 34.5261 226.125 34.7383C225.828 34.9648 225.503 35.1628 225.136 35.3468C224.783 35.5166 224.401 35.6581 223.991 35.7572C223.582 35.8704 223.158 35.927 222.72 35.927C221.943 35.927 221.18 35.8279 220.459 35.6298C219.738 35.4317 219.074 35.1487 218.438 34.795C217.817 34.4271 217.252 33.9884 216.743 33.479C216.234 32.9554 215.796 32.3894 215.429 31.7527C215.062 31.1159 214.793 30.4509 214.595 29.7151C214.398 28.9793 214.299 28.2152 214.299 27.4228C214.299 26.22 214.525 25.1163 214.963 24.0834C215.401 23.0504 215.994 22.1448 216.757 21.3949C217.52 20.6308 218.41 20.0223 219.428 19.5978C220.459 19.1592 221.547 18.9328 222.72 18.9328C223.257 18.9328 223.751 18.9894 224.203 19.1167C224.669 19.2441 225.093 19.3997 225.475 19.612C225.856 19.8242 226.21 20.0648 226.52 20.3619C226.831 20.6449 227.1 20.9562 227.34 21.2958L227.721 20.1214L227.933 19.5978C227.99 19.4563 228.06 19.3573 228.117 19.3007C228.188 19.2299 228.272 19.1875 228.357 19.1733C228.456 19.145 228.583 19.1309 228.753 19.1309H230.674C230.773 19.1309 230.886 19.1309 231.014 19.1733C231.141 19.2016 231.254 19.2582 231.353 19.3573C231.48 19.4563 231.565 19.5554 231.607 19.6827C231.649 19.8101 231.678 19.9374 231.678 20.0931V34.6818V34.6818ZM218.947 27.4369C218.947 28.0029 219.032 28.5406 219.201 29.0359C219.385 29.5311 219.639 29.9556 219.964 30.3235C220.289 30.6914 220.685 30.9744 221.137 31.1867C221.603 31.3989 222.112 31.498 222.677 31.498C223.242 31.498 223.793 31.3989 224.274 31.1867C224.768 30.9744 225.206 30.6773 225.56 30.3235C225.927 29.9556 226.224 29.5311 226.422 29.0359C226.633 28.5406 226.732 28.0029 226.732 27.4369C226.732 26.8709 226.633 26.3615 226.422 25.8521C226.21 25.3569 225.927 24.9182 225.56 24.5362C225.192 24.1541 224.768 23.857 224.274 23.6447C223.779 23.4183 223.242 23.3051 222.677 23.3051C222.112 23.3051 221.603 23.4183 221.137 23.6447C220.685 23.857 220.289 24.1541 219.964 24.5362C219.639 24.9182 219.385 25.3569 219.201 25.8521C219.032 26.3474 218.947 26.8851 218.947 27.4369ZM236.482 16.6405C236.482 16.3716 236.566 16.1735 236.736 16.0462C236.92 15.9047 237.174 15.7773 237.499 15.6641L240.438 14.6453C240.438 14.6453 240.523 14.6453 240.551 14.6453H240.664C240.989 14.6453 241.187 14.7444 241.3 14.9283C241.413 15.1123 241.469 15.3528 241.469 15.65V19.2016H243.221C243.504 19.2016 243.716 19.2865 243.899 19.4422C244.069 19.612 244.154 19.8525 244.154 20.178V22.6825C244.154 23.0504 244.069 23.3193 243.899 23.4891C243.73 23.6589 243.504 23.7296 243.221 23.7296H241.455V34.6535C241.455 34.9789 241.37 35.2336 241.187 35.4034C241.003 35.5732 240.734 35.644 240.395 35.644H237.471C236.807 35.644 236.482 35.3185 236.482 34.6535V23.7296H235.139C234.475 23.7296 234.15 23.3759 234.15 22.6825V20.178C234.15 19.5271 234.475 19.1875 235.139 19.1875H236.467V16.6405H236.482ZM247.305 20.2063C247.305 19.9233 247.375 19.6969 247.531 19.4988C247.686 19.3007 247.926 19.2016 248.251 19.2016H251.204C251.303 19.2016 251.416 19.2299 251.543 19.2724C251.671 19.3148 251.769 19.3856 251.882 19.4846C251.981 19.5695 252.066 19.6686 252.137 19.7959C252.207 19.9233 252.25 20.0506 252.25 20.2063V34.6393C252.25 34.9648 252.165 35.2195 251.981 35.3893C251.798 35.5591 251.543 35.6298 251.204 35.6298H248.251C247.615 35.6298 247.29 35.3044 247.29 34.6393V20.1921L247.305 20.2063ZM247.305 13.6548C247.305 13.2869 247.375 13.0322 247.531 12.8907C247.686 12.7351 247.926 12.6643 248.251 12.6643H251.247C251.543 12.6643 251.784 12.7351 251.967 12.8907C252.151 13.0322 252.25 13.2869 252.25 13.6548V16.1735C252.25 16.2726 252.222 16.3858 252.179 16.5131C252.137 16.6405 252.066 16.7537 251.981 16.8669C251.897 16.9801 251.784 17.0791 251.656 17.1499C251.529 17.2206 251.402 17.2489 251.247 17.2489H248.251C247.615 17.2489 247.29 16.8952 247.29 16.1735V13.6548H247.305ZM272.977 34.6676C272.977 34.8091 272.949 34.9506 272.907 35.0921C272.85 35.2195 272.766 35.3185 272.652 35.4034C272.554 35.5025 272.441 35.5591 272.313 35.5874C272.186 35.6157 272.073 35.6298 271.974 35.6298H269.431C269.247 35.6298 269.106 35.6015 268.993 35.5591C268.88 35.5025 268.795 35.4317 268.725 35.3468C268.654 35.2619 268.597 35.1629 268.541 35.0355C268.498 34.9082 268.456 34.7667 268.4 34.6251L268.23 34.045C268.004 34.2714 267.735 34.512 267.425 34.7242C267.128 34.9506 266.803 35.1487 266.436 35.3327C266.082 35.5025 265.701 35.644 265.291 35.743C264.881 35.8562 264.457 35.9128 264.019 35.9128C263.242 35.9128 262.479 35.8138 261.759 35.6157C261.038 35.4176 260.374 35.1346 259.738 34.7808C259.117 34.4129 258.551 33.9742 258.043 33.4648C257.534 32.9413 257.096 32.3753 256.729 31.7385C256.361 31.1018 256.093 30.4367 255.895 29.7009C255.697 28.9651 255.598 28.201 255.598 27.4086C255.598 26.2059 255.825 25.1022 256.263 24.0692C256.701 23.0363 257.294 22.1307 258.057 21.3807C258.82 20.6166 259.71 20.0082 260.727 19.5837C261.759 19.145 262.847 18.9186 264.019 18.9186C264.556 18.9186 265.051 18.9752 265.503 19.1026C265.969 19.2299 266.393 19.3856 266.775 19.5978C267.156 19.8101 267.509 20.0506 267.82 20.3478C268.131 20.6308 268.4 20.9421 268.64 21.2817L269.021 20.1072L269.233 19.5837C269.29 19.4422 269.36 19.3431 269.417 19.2865C269.488 19.2158 269.572 19.1733 269.657 19.1592C269.756 19.1309 269.883 19.1167 270.053 19.1167H271.974C272.073 19.1167 272.186 19.1167 272.313 19.1592C272.441 19.1875 272.554 19.2441 272.652 19.3431C272.78 19.4422 272.864 19.5412 272.907 19.6686C272.949 19.7959 272.977 19.9233 272.977 20.0789V34.6676V34.6676ZM260.247 27.4228C260.247 27.9888 260.332 28.5265 260.501 29.0217C260.685 29.517 260.939 29.9415 261.264 30.3094C261.589 30.6773 261.985 30.9603 262.437 31.1725C262.903 31.3848 263.412 31.4838 263.977 31.4838C264.542 31.4838 265.093 31.3848 265.574 31.1725C266.068 30.9603 266.506 30.6631 266.859 30.3094C267.227 29.9415 267.524 29.517 267.721 29.0217C267.933 28.5265 268.032 27.9888 268.032 27.4228C268.032 26.8568 267.933 26.3474 267.721 25.838C267.509 25.3427 267.227 24.9041 266.859 24.522C266.492 24.14 266.068 23.8428 265.574 23.6306C265.079 23.4042 264.542 23.291 263.977 23.291C263.412 23.291 262.903 23.4042 262.437 23.6306C261.985 23.8428 261.589 24.14 261.264 24.522C260.939 24.9041 260.685 25.3427 260.501 25.838C260.332 26.3332 260.247 26.8709 260.247 27.4228ZM279.251 30.5216C279.477 30.748 279.731 30.9461 280 31.1159C280.282 31.2716 280.537 31.3989 280.791 31.498C281.045 31.597 281.257 31.6678 281.455 31.7102C281.639 31.7527 281.78 31.781 281.836 31.781C282.006 31.781 282.204 31.781 282.458 31.781C282.713 31.7668 282.967 31.7244 283.193 31.6678C283.419 31.597 283.617 31.498 283.786 31.3423C283.956 31.2008 284.041 30.9886 284.041 30.7197C284.041 30.4792 283.998 30.2952 283.899 30.1537C283.8 30.0122 283.673 29.8849 283.49 29.7858C283.306 29.6868 283.08 29.5877 282.811 29.517C282.557 29.4462 282.26 29.3472 281.935 29.2481C280.904 28.9651 280.042 28.6397 279.378 28.2576C278.7 27.8756 278.177 27.4369 277.781 26.97C277.4 26.4889 277.117 25.9653 276.962 25.4135C276.806 24.8616 276.736 24.2815 276.736 23.673C276.736 22.9514 276.877 22.3005 277.16 21.7203C277.442 21.1402 277.852 20.6308 278.375 20.2204C278.898 19.7959 279.533 19.4705 280.268 19.2441C281.003 19.0177 281.808 18.8903 282.713 18.8903C283.249 18.8903 283.758 18.9328 284.238 19.0318C284.719 19.1167 285.171 19.2582 285.595 19.4563C286.019 19.6403 286.443 19.895 286.852 20.2063C287.262 20.5034 287.672 20.8713 288.082 21.2958C288.223 21.4656 288.308 21.6354 288.308 21.7911C288.308 21.9326 288.223 22.1024 288.025 22.2722C287.686 22.5552 287.361 22.824 287.05 23.0929C286.753 23.3617 286.429 23.6589 286.104 23.9843C286.005 24.0692 285.892 24.1258 285.793 24.1541C285.694 24.1683 285.595 24.1541 285.496 24.1541C285.397 24.1258 285.312 24.0834 285.228 24.0268C285.143 23.9702 285.058 23.8994 285.001 23.8004C284.705 23.4608 284.351 23.2344 283.97 23.1212C283.589 22.9938 283.221 22.9372 282.882 22.9372C282.458 22.9372 282.119 23.008 281.879 23.1636C281.625 23.3051 281.512 23.5315 281.526 23.8428C281.54 24.0692 281.625 24.239 281.766 24.3664C281.921 24.4937 282.105 24.5928 282.317 24.6635C282.543 24.7343 282.769 24.805 283.009 24.8616C283.264 24.9041 283.49 24.9607 283.687 25.0173C284.465 25.272 285.171 25.5408 285.821 25.838C286.471 26.1351 287.022 26.4889 287.502 26.9275C287.983 27.352 288.336 27.8614 288.604 28.4557C288.873 29.05 289 29.7717 289 30.6348C289 31.498 288.83 32.2479 288.477 32.9271C288.138 33.6063 287.672 34.1582 287.078 34.6251C286.485 35.078 285.779 35.4317 284.959 35.6723C284.154 35.9128 283.278 36.0402 282.331 36.0402C281.794 36.0402 281.257 35.9977 280.706 35.8987C280.155 35.7996 279.618 35.6581 279.11 35.4458C278.587 35.2336 278.106 34.9648 277.64 34.6251C277.174 34.2855 276.764 33.8894 276.397 33.4082C276.298 33.2809 276.227 33.1677 276.171 33.0262C276.128 32.8847 276.1 32.7573 276.1 32.63C276.1 32.5026 276.128 32.3894 276.171 32.2762C276.227 32.163 276.298 32.064 276.397 31.9932L278.064 30.3235C278.276 30.1537 278.445 30.0971 278.601 30.1396C278.77 30.1962 278.968 30.3377 279.223 30.5782L279.251 30.5216Z" fill="white"/>
<path opacity="0.6" d="M201.356 52.7938H202.416L203.575 57.0388L204.79 52.7938H205.906L207.121 57.0388L208.28 52.7938H209.339L207.63 58.5528H206.669L205.355 53.9541L204.041 58.5528H203.08L201.37 52.7938H201.356ZM210.851 55.6238C210.851 54.7182 211.134 53.9682 211.713 53.4022C212.179 52.9353 212.787 52.6947 213.536 52.6947C214.284 52.6947 214.85 52.9494 215.358 53.4588C215.825 53.9258 216.065 54.6616 216.065 55.6379H211.981C211.981 56.3454 212.151 56.869 212.49 57.2086C212.787 57.5057 213.182 57.6614 213.649 57.6614C214.115 57.6614 214.454 57.5623 214.652 57.3642C214.892 57.1237 215.005 56.8548 215.005 56.5577H216.121C215.98 57.1661 215.768 57.6189 215.471 57.9161C215.033 58.3547 214.426 58.567 213.649 58.567C212.872 58.567 212.179 58.3123 211.685 57.8029C211.148 57.2652 210.879 56.5435 210.879 55.6238H210.851ZM213.479 53.5579C213.069 53.5579 212.744 53.6994 212.476 53.9682C212.236 54.2088 212.094 54.4918 212.024 54.8314H214.906C214.906 54.4918 214.765 54.1946 214.496 53.9258C214.256 53.6852 213.931 53.572 213.493 53.572L213.479 53.5579ZM218.085 49.8223H219.088V53.4588C219.526 52.9211 220.063 52.6523 220.699 52.6523C221.377 52.6523 221.928 52.8645 222.366 53.3032C222.903 53.8409 223.172 54.6191 223.172 55.6238C223.172 56.6284 222.903 57.3642 222.366 57.9019C221.928 58.3406 221.363 58.5528 220.657 58.5528C219.95 58.5528 219.399 58.284 219.088 57.7463V58.4538H218.085V49.8081V49.8223ZM220.657 53.5579C220.247 53.5579 219.88 53.7277 219.541 54.0673C219.244 54.3644 219.088 54.7889 219.088 55.3266V55.9351C219.088 56.4445 219.258 56.8548 219.597 57.1944C219.894 57.4916 220.247 57.6472 220.657 57.6472C220.996 57.6472 221.278 57.534 221.519 57.2935C221.886 56.9256 222.07 56.3737 222.07 55.6238C222.07 54.8738 221.9 54.2937 221.561 53.9541C221.293 53.6852 220.996 53.5437 220.657 53.5437V53.5579ZM233.952 49.8223H234.956V58.4679H233.952V57.7604C233.585 58.2981 233.076 58.567 232.441 58.567C231.734 58.567 231.183 58.3689 230.773 57.9585C230.166 57.3501 229.869 56.5718 229.869 55.6379C229.869 54.6333 230.138 53.855 230.674 53.3173C231.112 52.8787 231.635 52.6664 232.243 52.6664C232.978 52.6664 233.557 52.9494 233.952 53.5296V49.8364V49.8223ZM232.384 53.5579C232.045 53.5579 231.748 53.6994 231.48 53.9682C231.141 54.3078 230.971 54.8597 230.971 55.6379C230.971 56.4162 231.155 56.9397 231.522 57.3076C231.762 57.5482 232.045 57.6614 232.384 57.6614C232.794 57.6614 233.119 57.5199 233.387 57.251C233.755 56.8831 233.938 56.3454 233.938 55.6379C233.938 54.9304 233.74 54.3786 233.331 53.9682C233.062 53.6994 232.737 53.5579 232.37 53.5579H232.384ZM236.934 55.6238C236.934 54.7182 237.216 53.9682 237.796 53.4022C238.262 52.9353 238.869 52.6947 239.618 52.6947C240.367 52.6947 240.932 52.9494 241.441 53.4588C241.907 53.9258 242.147 54.6616 242.147 55.6379H238.064C238.064 56.3454 238.234 56.869 238.573 57.2086C238.869 57.5057 239.265 57.6614 239.731 57.6614C240.198 57.6614 240.537 57.5623 240.734 57.3642C240.975 57.1237 241.088 56.8548 241.088 56.5577H242.204C242.063 57.1661 241.851 57.6189 241.554 57.9161C241.116 58.3547 240.508 58.567 239.731 58.567C238.954 58.567 238.262 58.3123 237.767 57.8029C237.23 57.2652 236.962 56.5435 236.962 55.6238H236.934ZM239.562 53.5579C239.152 53.5579 238.827 53.6994 238.559 53.9682C238.318 54.2088 238.177 54.4918 238.106 54.8314H240.989C240.989 54.4918 240.848 54.1946 240.579 53.9258C240.339 53.6852 240.014 53.572 239.576 53.572L239.562 53.5579ZM243.659 52.7938H244.775L246.598 57.2935L248.421 52.7938H249.537L247.121 58.5528H246.118L243.702 52.7938H243.659ZM250.992 55.6238C250.992 54.7182 251.275 53.9682 251.854 53.4022C252.32 52.9353 252.928 52.6947 253.677 52.6947C254.426 52.6947 254.991 52.9494 255.5 53.4588C255.966 53.9258 256.206 54.6616 256.206 55.6379H252.123C252.123 56.3454 252.292 56.869 252.631 57.2086C252.928 57.5057 253.324 57.6614 253.79 57.6614C254.256 57.6614 254.595 57.5623 254.793 57.3642C255.033 57.1237 255.146 56.8548 255.146 56.5577H256.263C256.121 57.1661 255.909 57.6189 255.613 57.9161C255.175 58.3547 254.567 58.567 253.79 58.567C253.013 58.567 252.32 58.3123 251.826 57.8029C251.289 57.2652 251.021 56.5435 251.021 55.6238H250.992ZM253.62 53.5579C253.211 53.5579 252.886 53.6994 252.617 53.9682C252.377 54.2088 252.236 54.4918 252.165 54.8314H255.047C255.047 54.4918 254.906 54.1946 254.638 53.9258C254.397 53.6852 254.072 53.572 253.634 53.572L253.62 53.5579ZM258.424 49.8223H259.427V58.4679H258.424V49.8223ZM261.561 55.6379C261.561 54.7606 261.844 54.039 262.423 53.4588C262.932 52.9494 263.553 52.6947 264.288 52.6947C265.023 52.6947 265.644 52.9494 266.153 53.4588C266.718 54.0248 267.015 54.7606 267.015 55.6379C267.015 56.5152 266.732 57.2369 266.153 57.817C265.644 58.3264 265.023 58.5811 264.288 58.5811C263.553 58.5811 262.932 58.3264 262.423 57.817C261.858 57.251 261.561 56.5152 261.561 55.6379ZM264.288 53.6145C263.878 53.6145 263.553 53.756 263.285 54.0248C262.875 54.4352 262.677 54.9729 262.677 55.6379C262.677 56.303 262.861 56.8407 263.228 57.2086C263.525 57.5057 263.878 57.6614 264.288 57.6614C264.698 57.6614 265.051 57.5057 265.348 57.2086C265.715 56.8407 265.899 56.3171 265.899 55.6379C265.899 54.9587 265.701 54.421 265.291 54.0248C265.023 53.756 264.684 53.6145 264.288 53.6145V53.6145ZM269.954 60.3357H268.951V52.8079H269.954V53.4588C270.364 52.9494 270.872 52.6947 271.522 52.6947C272.229 52.6947 272.794 52.907 273.232 53.3456C273.769 53.8833 274.037 54.6474 274.037 55.6238C274.037 56.6001 273.769 57.4067 273.232 57.9444C272.794 58.383 272.229 58.5953 271.522 58.5953C270.816 58.5953 270.293 58.3264 269.954 57.7887V60.3216V60.3357ZM271.522 53.6145C271.112 53.6145 270.759 53.7701 270.462 54.0673C270.123 54.4069 269.954 54.8031 269.954 55.2842V55.9917C269.954 56.4586 270.137 56.8831 270.505 57.251C270.802 57.5482 271.141 57.7038 271.508 57.7038C271.847 57.7038 272.13 57.5906 272.37 57.3501C272.737 56.9822 272.921 56.402 272.921 55.6379C272.921 54.8738 272.751 54.3644 272.412 54.0248C272.144 53.756 271.847 53.6145 271.508 53.6145H271.522ZM276.029 55.6379C276.029 54.7323 276.312 53.9824 276.891 53.4164C277.358 52.9494 277.965 52.7089 278.714 52.7089C279.463 52.7089 280.028 52.9636 280.537 53.473C281.003 53.9399 281.243 54.6757 281.243 55.6521H277.16C277.16 56.3596 277.329 56.8831 277.668 57.2227C277.965 57.5199 278.361 57.6755 278.827 57.6755C279.293 57.6755 279.632 57.5765 279.83 57.3784C280.07 57.1378 280.183 56.869 280.183 56.5718H281.3C281.158 57.1803 280.946 57.6331 280.65 57.9302C280.212 58.3689 279.604 58.5811 278.827 58.5811C278.05 58.5811 277.358 58.3264 276.863 57.817C276.326 57.2793 276.058 56.5577 276.058 55.6379H276.029ZM278.657 53.572C278.248 53.572 277.923 53.7135 277.654 53.9824C277.414 54.2229 277.273 54.5059 277.202 54.8455H280.084C280.084 54.5059 279.943 54.2088 279.675 53.9399C279.435 53.6994 279.11 53.5862 278.672 53.5862L278.657 53.572ZM284.874 53.5154C285.411 52.9777 286.132 52.7089 287.05 52.7089V53.8267C286.909 53.7984 286.725 53.7701 286.499 53.7701C285.991 53.7701 285.524 53.9824 285.086 54.421C284.719 54.7889 284.465 55.1851 284.323 55.5813V58.4679H283.32V52.8079H284.323V54.2229C284.493 53.9541 284.676 53.7135 284.874 53.5154Z" fill="white"/>
<path d="M54.3129 61.5668C51.1621 61.5668 48.6047 64.1279 48.6047 67.2834C48.6047 70.4388 51.1621 73 54.3129 73C57.4637 73 60.0211 70.4388 60.0211 67.2834C60.0211 64.1279 57.4637 61.5668 54.3129 61.5668Z" fill="white"/>
<path d="M43.8431 34.2148C41.54 31.1018 38.5164 28.5548 35.0123 26.8285C31.7767 25.2295 28.1314 24.3381 24.2882 24.3381C19.7386 24.3381 15.4715 25.5833 11.8262 27.7765V7.40049L10.9784 6.69298L8.91557 4.96668L3.05192 0.0283203C1.32815 0.254721 0 1.74047 0 3.52338V48.662C0 57.4916 4.69092 65.2175 11.7132 69.4908C11.7555 69.5191 11.7979 69.5474 11.8403 69.5616C15.4857 71.7548 19.7386 73 24.3023 73C37.7251 73 48.5905 62.1045 48.5905 48.662C48.5905 43.2567 46.8244 38.2475 43.8431 34.2148ZM24.2882 61.1423C17.4073 61.1423 11.8262 55.553 11.8262 48.662C11.8262 41.7709 17.4073 36.1816 24.2882 36.1816C31.1692 36.1816 36.7502 41.7709 36.7502 48.662C36.7502 55.553 31.1692 61.1423 24.2882 61.1423Z" fill="url(#paint0_linear_193_880)"/>
<path d="M11.8403 3.52336C11.8403 1.5848 10.2578 0 8.32212 0H6.13208L11.8403 4.78271V3.50921V3.52336Z" fill="#B60121"/>
<defs>
<linearGradient id="paint0_linear_193_880" x1="33.6135" y1="62.996" x2="11.8237" y2="29.6029" gradientUnits="userSpaceOnUse">
<stop stop-color="white"/>
<stop offset="0.54" stop-color="#95001A"/>
<stop offset="1" stop-color="#B60121"/>
</linearGradient>
</defs>
</svg>
