<svg width="50" height="61" viewBox="0 0 50 61" fill="none" xmlns="http://www.w3.org/2000/svg">
<path d="M44.6882 51C42.2029 51 40.1863 53.0166 40.1863 55.502C40.1863 57.9873 42.2029 60 44.6882 60C47.1736 60 49.1863 57.9873 49.1863 55.502C49.1863 53.0166 47.1736 51 44.6882 51Z" fill="white"/>
<path d="M36.2788 28.107C34.3868 25.5432 31.8942 23.4486 29.0151 22.0288C26.3539 20.716 23.3554 19.9794 20.1883 19.9794C16.4413 19.9794 12.9328 21.0082 9.93435 22.8066V6.06173L9.23512 5.47737L7.53641 4.0535L2.69528 0C1.28448 0.185185 0.186279 1.40329 0.186279 2.8642V39.9877C0.186279 47.2469 4.04849 53.6008 9.82741 57.1111C9.86032 57.1317 9.89733 57.1523 9.93024 57.1728C12.9287 58.9712 16.4372 60 20.1883 60C31.232 60 40.1863 51.0412 40.1863 39.9877C40.1863 35.5391 38.7344 31.428 36.2788 28.107ZM20.1883 50.251C14.5246 50.251 9.93435 45.6543 9.93435 39.9877C9.93435 34.321 14.5246 29.7284 20.1883 29.7284C25.8521 29.7284 30.4423 34.3251 30.4423 39.9877C30.4423 45.6502 25.8521 50.251 20.1883 50.251Z" fill="url(#paint0_linear_108_565)"/>
<path d="M10.1863 2.93835C10.1863 1.32079 8.80153 0 7.10565 0H5.18628L10.1863 4V2.93835Z" fill="#B60121"/>
<defs>
<linearGradient id="paint0_linear_108_565" x1="27.8593" y1="51.7695" x2="9.9461" y2="24.2965" gradientUnits="userSpaceOnUse">
<stop stop-color="white"/>
<stop offset="0.54" stop-color="#95001A"/>
<stop offset="1" stop-color="#B60121"/>
</linearGradient>
</defs>
</svg>
